<svg width="159" height="46" viewBox="0 0 159 46" fill="none" xmlns="http://www.w3.org/2000/svg">
<rect y="0.688599" width="45" height="45" rx="15" fill="url(#paint0_linear_303_10)"/>
<path d="M3.756 22.892C3.756 21.6787 3.98 20.4933 4.428 19.336C4.876 18.16 5.52933 17.096 6.388 16.144C7.24667 15.192 8.292 14.436 9.524 13.876C10.756 13.2973 12.156 13.008 13.724 13.008C15.5907 13.008 17.2053 13.4093 18.568 14.212C19.9493 15.0147 20.976 16.06 21.648 17.348L18.12 19.812C17.8213 19.1027 17.42 18.552 16.916 18.16C16.4307 17.768 15.8893 17.4973 15.292 17.348C14.7133 17.18 14.1533 17.096 13.612 17.096C12.7347 17.096 11.9693 17.2733 11.316 17.628C10.6627 17.964 10.1213 18.4213 9.692 19C9.26267 19.5787 8.94533 20.2227 8.74 20.932C8.53467 21.6413 8.432 22.3507 8.432 23.06C8.432 23.844 8.55333 24.6 8.796 25.328C9.03867 26.056 9.384 26.7 9.832 27.26C10.2987 27.82 10.8587 28.268 11.512 28.604C12.1653 28.9213 12.884 29.08 13.668 29.08C14.228 29.08 14.7973 28.9867 15.376 28.8C15.9547 28.6133 16.4867 28.324 16.972 27.932C17.476 27.5213 17.8587 26.9893 18.12 26.336L21.872 28.548C21.48 29.5187 20.836 30.3493 19.94 31.04C19.044 31.7307 18.0267 32.2627 16.888 32.636C15.768 32.9907 14.6573 33.168 13.556 33.168C12.1187 33.168 10.7933 32.8787 9.58 32.3C8.38533 31.7027 7.34933 30.9187 6.472 29.948C5.61333 28.9587 4.94133 27.8573 4.456 26.644C3.98933 25.412 3.756 24.1613 3.756 22.892ZM26.7646 13.12L31.4406 27.624L36.0606 13.12H40.9046L33.6806 33H29.1726L21.8926 13.12H26.7646Z" fill="white"/>
<path d="M58.84 23.6C58.84 21.952 59.208 20.48 59.944 19.184C60.696 17.872 61.712 16.856 62.992 16.136C64.288 15.4 65.736 15.032 67.336 15.032C69.208 15.032 70.848 15.512 72.256 16.472C73.664 17.432 74.648 18.76 75.208 20.456H71.344C70.96 19.656 70.416 19.056 69.712 18.656C69.024 18.256 68.224 18.056 67.312 18.056C66.336 18.056 65.464 18.288 64.696 18.752C63.944 19.2 63.352 19.84 62.92 20.672C62.504 21.504 62.296 22.48 62.296 23.6C62.296 24.704 62.504 25.68 62.92 26.528C63.352 27.36 63.944 28.008 64.696 28.472C65.464 28.92 66.336 29.144 67.312 29.144C68.224 29.144 69.024 28.944 69.712 28.544C70.416 28.128 70.96 27.52 71.344 26.72H75.208C74.648 28.432 73.664 29.768 72.256 30.728C70.864 31.672 69.224 32.144 67.336 32.144C65.736 32.144 64.288 31.784 62.992 31.064C61.712 30.328 60.696 29.312 59.944 28.016C59.208 26.72 58.84 25.248 58.84 23.6ZM81.4379 20.768C81.8699 20.064 82.4299 19.512 83.1179 19.112C83.8219 18.712 84.6219 18.512 85.5179 18.512V22.04H84.6299C83.5739 22.04 82.7739 22.288 82.2299 22.784C81.7019 23.28 81.4379 24.144 81.4379 25.376V32H78.0779V18.704H81.4379V20.768ZM100.141 25.064C100.141 25.544 100.109 25.976 100.045 26.36H90.325C90.405 27.32 90.741 28.072 91.333 28.616C91.925 29.16 92.653 29.432 93.517 29.432C94.765 29.432 95.653 28.896 96.181 27.824H99.805C99.421 29.104 98.685 30.16 97.597 30.992C96.509 31.808 95.173 32.216 93.589 32.216C92.309 32.216 91.157 31.936 90.133 31.376C89.125 30.8 88.333 29.992 87.757 28.952C87.197 27.912 86.917 26.712 86.917 25.352C86.917 23.976 87.197 22.768 87.757 21.728C88.317 20.688 89.101 19.888 90.109 19.328C91.117 18.768 92.277 18.488 93.589 18.488C94.853 18.488 95.981 18.76 96.973 19.304C97.981 19.848 98.757 20.624 99.301 21.632C99.861 22.624 100.141 23.768 100.141 25.064ZM96.661 24.104C96.645 23.24 96.333 22.552 95.725 22.04C95.117 21.512 94.373 21.248 93.493 21.248C92.661 21.248 91.957 21.504 91.381 22.016C90.821 22.512 90.477 23.208 90.349 24.104H96.661ZM101.729 25.304C101.729 23.96 101.993 22.768 102.521 21.728C103.066 20.688 103.794 19.888 104.706 19.328C105.634 18.768 106.666 18.488 107.802 18.488C108.794 18.488 109.658 18.688 110.394 19.088C111.146 19.488 111.746 19.992 112.194 20.6V18.704H115.578V32H112.194V30.056C111.762 30.68 111.162 31.2 110.394 31.616C109.642 32.016 108.77 32.216 107.778 32.216C106.658 32.216 105.634 31.928 104.706 31.352C103.794 30.776 103.066 29.968 102.521 28.928C101.993 27.872 101.729 26.664 101.729 25.304ZM112.194 25.352C112.194 24.536 112.034 23.84 111.714 23.264C111.394 22.672 110.962 22.224 110.418 21.92C109.874 21.6 109.29 21.44 108.666 21.44C108.042 21.44 107.466 21.592 106.938 21.896C106.41 22.2 105.978 22.648 105.642 23.24C105.322 23.816 105.162 24.504 105.162 25.304C105.162 26.104 105.322 26.808 105.642 27.416C105.978 28.008 106.41 28.464 106.938 28.784C107.482 29.104 108.058 29.264 108.666 29.264C109.29 29.264 109.874 29.112 110.418 28.808C110.962 28.488 111.394 28.04 111.714 27.464C112.034 26.872 112.194 26.168 112.194 25.352ZM122.771 21.464V27.896C122.771 28.344 122.875 28.672 123.083 28.88C123.307 29.072 123.675 29.168 124.187 29.168H125.747V32H123.635C120.803 32 119.387 30.624 119.387 27.872V21.464H117.803V18.704H119.387V15.416H122.771V18.704H125.747V21.464H122.771ZM143.212 15.248L137.068 32H132.988L126.844 15.248H130.444L135.052 28.568L139.636 15.248H143.212ZM157.586 25.064C157.586 25.544 157.554 25.976 157.49 26.36H147.77C147.85 27.32 148.186 28.072 148.778 28.616C149.37 29.16 150.098 29.432 150.962 29.432C152.21 29.432 153.098 28.896 153.626 27.824H157.25C156.866 29.104 156.13 30.16 155.042 30.992C153.954 31.808 152.618 32.216 151.034 32.216C149.754 32.216 148.602 31.936 147.578 31.376C146.57 30.8 145.778 29.992 145.202 28.952C144.642 27.912 144.362 26.712 144.362 25.352C144.362 23.976 144.642 22.768 145.202 21.728C145.762 20.688 146.546 19.888 147.554 19.328C148.562 18.768 149.722 18.488 151.034 18.488C152.298 18.488 153.426 18.76 154.418 19.304C155.426 19.848 156.202 20.624 156.746 21.632C157.306 22.624 157.586 23.768 157.586 25.064ZM154.106 24.104C154.09 23.24 153.778 22.552 153.17 22.04C152.562 21.512 151.818 21.248 150.938 21.248C150.106 21.248 149.402 21.504 148.826 22.016C148.266 22.512 147.922 23.208 147.794 24.104H154.106Z" fill="url(#paint1_linear_303_10)"/>
<defs>
<linearGradient id="paint0_linear_303_10" x1="6.5" y1="45.6886" x2="45" y2="0.688599" gradientUnits="userSpaceOnUse">
<stop stop-color="#629AEF"/>
<stop offset="1" stop-color="#9F57E8"/>
</linearGradient>
<linearGradient id="paint1_linear_303_10" x1="157" y1="25.5" x2="58" y2="24" gradientUnits="userSpaceOnUse">
<stop stop-color="#629AEF"/>
<stop offset="1" stop-color="#9F57E8"/>
</linearGradient>
</defs>
</svg>
