<svg width="159" height="45" viewBox="0 0 159 45" fill="none" xmlns="http://www.w3.org/2000/svg">
<rect width="45" height="45" rx="15" fill="url(#paint0_linear_190_39)"/>
<path d="M6.744 22.36C6.744 21.32 6.928 20.304 7.296 19.312C7.68 18.304 8.232 17.392 8.952 16.576C9.672 15.744 10.552 15.088 11.592 14.608C12.632 14.112 13.816 13.864 15.144 13.864C16.712 13.864 18.064 14.208 19.2 14.896C20.352 15.584 21.208 16.48 21.768 17.584L19.224 19.336C18.936 18.696 18.56 18.192 18.096 17.824C17.632 17.44 17.136 17.176 16.608 17.032C16.08 16.872 15.56 16.792 15.048 16.792C14.216 16.792 13.488 16.96 12.864 17.296C12.256 17.632 11.744 18.072 11.328 18.616C10.912 19.16 10.6 19.768 10.392 20.44C10.2 21.112 10.104 21.784 10.104 22.456C10.104 23.208 10.224 23.936 10.464 24.64C10.704 25.328 11.04 25.944 11.472 26.488C11.92 27.016 12.448 27.44 13.056 27.76C13.68 28.064 14.36 28.216 15.096 28.216C15.624 28.216 16.16 28.128 16.704 27.952C17.248 27.776 17.752 27.496 18.216 27.112C18.68 26.728 19.04 26.232 19.296 25.624L22.008 27.184C21.672 28.032 21.12 28.752 20.352 29.344C19.6 29.936 18.752 30.384 17.808 30.688C16.864 30.992 15.928 31.144 15 31.144C13.784 31.144 12.672 30.896 11.664 30.4C10.656 29.888 9.784 29.216 9.048 28.384C8.328 27.536 7.76 26.592 7.344 25.552C6.944 24.496 6.744 23.432 6.744 22.36ZM25.7233 13.96L30.3313 27.064L34.8913 13.96H38.3713L31.9153 31H28.7233L22.2433 13.96H25.7233Z" fill="white"/>
<path d="M58.84 22.6C58.84 20.952 59.208 19.48 59.944 18.184C60.696 16.872 61.712 15.856 62.992 15.136C64.288 14.4 65.736 14.032 67.336 14.032C69.208 14.032 70.848 14.512 72.256 15.472C73.664 16.432 74.648 17.76 75.208 19.456H71.344C70.96 18.656 70.416 18.056 69.712 17.656C69.024 17.256 68.224 17.056 67.312 17.056C66.336 17.056 65.464 17.288 64.696 17.752C63.944 18.2 63.352 18.84 62.92 19.672C62.504 20.504 62.296 21.48 62.296 22.6C62.296 23.704 62.504 24.68 62.92 25.528C63.352 26.36 63.944 27.008 64.696 27.472C65.464 27.92 66.336 28.144 67.312 28.144C68.224 28.144 69.024 27.944 69.712 27.544C70.416 27.128 70.96 26.52 71.344 25.72H75.208C74.648 27.432 73.664 28.768 72.256 29.728C70.864 30.672 69.224 31.144 67.336 31.144C65.736 31.144 64.288 30.784 62.992 30.064C61.712 29.328 60.696 28.312 59.944 27.016C59.208 25.72 58.84 24.248 58.84 22.6ZM81.4379 19.768C81.8699 19.064 82.4299 18.512 83.1179 18.112C83.8219 17.712 84.6219 17.512 85.5179 17.512V21.04H84.6299C83.5739 21.04 82.7739 21.288 82.2299 21.784C81.7019 22.28 81.4379 23.144 81.4379 24.376V31H78.0779V17.704H81.4379V19.768ZM100.141 24.064C100.141 24.544 100.109 24.976 100.045 25.36H90.325C90.405 26.32 90.741 27.072 91.333 27.616C91.925 28.16 92.653 28.432 93.517 28.432C94.765 28.432 95.653 27.896 96.181 26.824H99.805C99.421 28.104 98.685 29.16 97.597 29.992C96.509 30.808 95.173 31.216 93.589 31.216C92.309 31.216 91.157 30.936 90.133 30.376C89.125 29.8 88.333 28.992 87.757 27.952C87.197 26.912 86.917 25.712 86.917 24.352C86.917 22.976 87.197 21.768 87.757 20.728C88.317 19.688 89.101 18.888 90.109 18.328C91.117 17.768 92.277 17.488 93.589 17.488C94.853 17.488 95.981 17.76 96.973 18.304C97.981 18.848 98.757 19.624 99.301 20.632C99.861 21.624 100.141 22.768 100.141 24.064ZM96.661 23.104C96.645 22.24 96.333 21.552 95.725 21.04C95.117 20.512 94.373 20.248 93.493 20.248C92.661 20.248 91.957 20.504 91.381 21.016C90.821 21.512 90.477 22.208 90.349 23.104H96.661ZM101.729 24.304C101.729 22.96 101.993 21.768 102.521 20.728C103.066 19.688 103.794 18.888 104.706 18.328C105.634 17.768 106.666 17.488 107.802 17.488C108.794 17.488 109.658 17.688 110.394 18.088C111.146 18.488 111.746 18.992 112.194 19.6V17.704H115.578V31H112.194V29.056C111.762 29.68 111.162 30.2 110.394 30.616C109.642 31.016 108.77 31.216 107.778 31.216C106.658 31.216 105.634 30.928 104.706 30.352C103.794 29.776 103.066 28.968 102.521 27.928C101.993 26.872 101.729 25.664 101.729 24.304ZM112.194 24.352C112.194 23.536 112.034 22.84 111.714 22.264C111.394 21.672 110.962 21.224 110.418 20.92C109.874 20.6 109.29 20.44 108.666 20.44C108.042 20.44 107.466 20.592 106.938 20.896C106.41 21.2 105.978 21.648 105.642 22.24C105.322 22.816 105.162 23.504 105.162 24.304C105.162 25.104 105.322 25.808 105.642 26.416C105.978 27.008 106.41 27.464 106.938 27.784C107.482 28.104 108.058 28.264 108.666 28.264C109.29 28.264 109.874 28.112 110.418 27.808C110.962 27.488 111.394 27.04 111.714 26.464C112.034 25.872 112.194 25.168 112.194 24.352ZM122.771 20.464V26.896C122.771 27.344 122.875 27.672 123.083 27.88C123.307 28.072 123.675 28.168 124.187 28.168H125.747V31H123.635C120.803 31 119.387 29.624 119.387 26.872V20.464H117.803V17.704H119.387V14.416H122.771V17.704H125.747V20.464H122.771ZM143.212 14.248L137.068 31H132.988L126.844 14.248H130.444L135.052 27.568L139.636 14.248H143.212ZM157.586 24.064C157.586 24.544 157.554 24.976 157.49 25.36H147.77C147.85 26.32 148.186 27.072 148.778 27.616C149.37 28.16 150.098 28.432 150.962 28.432C152.21 28.432 153.098 27.896 153.626 26.824H157.25C156.866 28.104 156.13 29.16 155.042 29.992C153.954 30.808 152.618 31.216 151.034 31.216C149.754 31.216 148.602 30.936 147.578 30.376C146.57 29.8 145.778 28.992 145.202 27.952C144.642 26.912 144.362 25.712 144.362 24.352C144.362 22.976 144.642 21.768 145.202 20.728C145.762 19.688 146.546 18.888 147.554 18.328C148.562 17.768 149.722 17.488 151.034 17.488C152.298 17.488 153.426 17.76 154.418 18.304C155.426 18.848 156.202 19.624 156.746 20.632C157.306 21.624 157.586 22.768 157.586 24.064ZM154.106 23.104C154.09 22.24 153.778 21.552 153.17 21.04C152.562 20.512 151.818 20.248 150.938 20.248C150.106 20.248 149.402 20.504 148.826 21.016C148.266 21.512 147.922 22.208 147.794 23.104H154.106Z" fill="#4782DC"/>
<defs>
<linearGradient id="paint0_linear_190_39" x1="6.5" y1="45" x2="45" y2="8.60542e-07" gradientUnits="userSpaceOnUse">
<stop stop-color="#629AEF"/>
<stop offset="1" stop-color="#8239CB"/>
</linearGradient>
</defs>
</svg>
