<svg width="151" height="45" viewBox="0 0 151 45" fill="none" xmlns="http://www.w3.org/2000/svg">
<rect width="45" height="45" rx="15" fill="#466443"/>
<path d="M16.928 18.424C16.816 18.312 16.608 18.16 16.304 17.968C16.016 17.776 15.656 17.592 15.224 17.416C14.808 17.24 14.352 17.088 13.856 16.96C13.36 16.816 12.856 16.744 12.344 16.744C11.448 16.744 10.768 16.912 10.304 17.248C9.856 17.584 9.632 18.056 9.632 18.664C9.632 19.128 9.776 19.496 10.064 19.768C10.352 20.04 10.784 20.272 11.36 20.464C11.936 20.656 12.656 20.864 13.52 21.088C14.64 21.36 15.608 21.696 16.424 22.096C17.256 22.48 17.888 22.992 18.32 23.632C18.768 24.256 18.992 25.088 18.992 26.128C18.992 27.04 18.824 27.824 18.488 28.48C18.152 29.12 17.688 29.64 17.096 30.04C16.504 30.44 15.832 30.736 15.08 30.928C14.328 31.104 13.528 31.192 12.68 31.192C11.832 31.192 10.984 31.104 10.136 30.928C9.288 30.752 8.472 30.504 7.688 30.184C6.904 29.848 6.184 29.448 5.528 28.984L6.992 26.128C7.136 26.272 7.392 26.464 7.76 26.704C8.128 26.928 8.576 27.16 9.104 27.4C9.632 27.624 10.208 27.816 10.832 27.976C11.456 28.136 12.088 28.216 12.728 28.216C13.624 28.216 14.304 28.064 14.768 27.76C15.232 27.456 15.464 27.024 15.464 26.464C15.464 25.952 15.28 25.552 14.912 25.264C14.544 24.976 14.032 24.728 13.376 24.52C12.72 24.296 11.944 24.056 11.048 23.8C9.976 23.496 9.08 23.16 8.36 22.792C7.64 22.408 7.104 21.928 6.752 21.352C6.4 20.776 6.224 20.056 6.224 19.192C6.224 18.024 6.496 17.048 7.04 16.264C7.6 15.464 8.352 14.864 9.296 14.464C10.24 14.048 11.288 13.84 12.44 13.84C13.24 13.84 13.992 13.928 14.696 14.104C15.416 14.28 16.088 14.512 16.712 14.8C17.336 15.088 17.896 15.4 18.392 15.736L16.928 18.424ZM37.3828 31V16.336L30.6868 27.808H29.8708L23.1748 16.336V31H21.9508V13.96H23.1748L30.2788 26.152L37.3828 13.96H38.6068V31H37.3828Z" fill="white"/>
<path d="M69.928 18.424C69.816 18.312 69.608 18.16 69.304 17.968C69.016 17.776 68.656 17.592 68.224 17.416C67.808 17.24 67.352 17.088 66.856 16.96C66.36 16.816 65.856 16.744 65.344 16.744C64.448 16.744 63.768 16.912 63.304 17.248C62.856 17.584 62.632 18.056 62.632 18.664C62.632 19.128 62.776 19.496 63.064 19.768C63.352 20.04 63.784 20.272 64.36 20.464C64.936 20.656 65.656 20.864 66.52 21.088C67.64 21.36 68.608 21.696 69.424 22.096C70.256 22.48 70.888 22.992 71.32 23.632C71.768 24.256 71.992 25.088 71.992 26.128C71.992 27.04 71.824 27.824 71.488 28.48C71.152 29.12 70.688 29.64 70.096 30.04C69.504 30.44 68.832 30.736 68.08 30.928C67.328 31.104 66.528 31.192 65.68 31.192C64.832 31.192 63.984 31.104 63.136 30.928C62.288 30.752 61.472 30.504 60.688 30.184C59.904 29.848 59.184 29.448 58.528 28.984L59.992 26.128C60.136 26.272 60.392 26.464 60.76 26.704C61.128 26.928 61.576 27.16 62.104 27.4C62.632 27.624 63.208 27.816 63.832 27.976C64.456 28.136 65.088 28.216 65.728 28.216C66.624 28.216 67.304 28.064 67.768 27.76C68.232 27.456 68.464 27.024 68.464 26.464C68.464 25.952 68.28 25.552 67.912 25.264C67.544 24.976 67.032 24.728 66.376 24.52C65.72 24.296 64.944 24.056 64.048 23.8C62.976 23.496 62.08 23.16 61.36 22.792C60.64 22.408 60.104 21.928 59.752 21.352C59.4 20.776 59.224 20.056 59.224 19.192C59.224 18.024 59.496 17.048 60.04 16.264C60.6 15.464 61.352 14.864 62.296 14.464C63.24 14.048 64.288 13.84 65.44 13.84C66.24 13.84 66.992 13.928 67.696 14.104C68.416 14.28 69.088 14.512 69.712 14.8C70.336 15.088 70.896 15.4 71.392 15.736L69.928 18.424ZM79.9908 31.24C78.9668 31.24 78.0468 31.072 77.2308 30.736C76.4148 30.384 75.7188 29.904 75.1428 29.296C74.5828 28.688 74.1508 27.992 73.8468 27.208C73.5428 26.424 73.3908 25.6 73.3908 24.736C73.3908 23.856 73.5428 23.024 73.8468 22.24C74.1508 21.456 74.5828 20.76 75.1428 20.152C75.7188 19.544 76.4148 19.072 77.2308 18.736C78.0468 18.384 78.9668 18.208 79.9908 18.208C81.0148 18.208 81.9268 18.384 82.7268 18.736C83.5428 19.072 84.2388 19.544 84.8148 20.152C85.3908 20.76 85.8228 21.456 86.1108 22.24C86.4148 23.024 86.5668 23.856 86.5668 24.736C86.5668 25.6 86.4148 26.424 86.1108 27.208C85.8228 27.992 85.3908 28.688 84.8148 29.296C84.2548 29.904 83.5668 30.384 82.7508 30.736C81.9348 31.072 81.0148 31.24 79.9908 31.24ZM76.7028 24.736C76.7028 25.472 76.8468 26.128 77.1348 26.704C77.4228 27.264 77.8148 27.704 78.3108 28.024C78.8068 28.344 79.3668 28.504 79.9908 28.504C80.5988 28.504 81.1508 28.344 81.6468 28.024C82.1428 27.688 82.5348 27.24 82.8228 26.68C83.1268 26.104 83.2788 25.448 83.2788 24.712C83.2788 23.992 83.1268 23.344 82.8228 22.768C82.5348 22.192 82.1428 21.744 81.6468 21.424C81.1508 21.104 80.5988 20.944 79.9908 20.944C79.3668 20.944 78.8068 21.112 78.3108 21.448C77.8148 21.768 77.4228 22.216 77.1348 22.792C76.8468 23.352 76.7028 24 76.7028 24.736ZM94.5934 31.24C93.5694 31.24 92.6494 31.072 91.8334 30.736C91.0174 30.384 90.3214 29.904 89.7454 29.296C89.1694 28.672 88.7214 27.968 88.4014 27.184C88.0974 26.4 87.9454 25.576 87.9454 24.712C87.9454 23.528 88.2094 22.448 88.7374 21.472C89.2814 20.48 90.0494 19.688 91.0414 19.096C92.0334 18.504 93.2094 18.208 94.5694 18.208C95.9294 18.208 97.0974 18.504 98.0734 19.096C99.0494 19.688 99.7774 20.464 100.257 21.424L97.1134 22.384C96.8414 21.92 96.4814 21.568 96.0334 21.328C95.5854 21.072 95.0894 20.944 94.5454 20.944C93.9374 20.944 93.3774 21.104 92.8654 21.424C92.3694 21.728 91.9774 22.168 91.6894 22.744C91.4014 23.304 91.2574 23.96 91.2574 24.712C91.2574 25.448 91.4014 26.104 91.6894 26.68C91.9934 27.24 92.3934 27.688 92.8894 28.024C93.3854 28.344 93.9374 28.504 94.5454 28.504C94.9294 28.504 95.2894 28.44 95.6254 28.312C95.9774 28.184 96.2894 28.008 96.5614 27.784C96.8334 27.56 97.0334 27.304 97.1614 27.016L100.305 27.976C100.017 28.6 99.5934 29.16 99.0334 29.656C98.4894 30.152 97.8414 30.544 97.0894 30.832C96.3534 31.104 95.5214 31.24 94.5934 31.24ZM118.484 31V16.336L111.788 27.808H110.972L104.276 16.336V31H103.052V13.96H104.276L111.38 26.152L118.484 13.96H119.708V31H118.484ZM128.926 31.24C128.046 31.24 127.23 31.072 126.478 30.736C125.726 30.384 125.07 29.912 124.51 29.32C123.966 28.712 123.534 28.016 123.214 27.232C122.91 26.432 122.758 25.592 122.758 24.712C122.758 23.528 123.022 22.456 123.55 21.496C124.078 20.536 124.806 19.768 125.734 19.192C126.662 18.6 127.702 18.304 128.854 18.304C130.038 18.304 131.086 18.6 131.998 19.192C132.91 19.784 133.63 20.568 134.158 21.544C134.702 22.504 134.974 23.56 134.974 24.712C134.974 24.808 134.974 24.904 134.974 25C134.974 25.096 134.966 25.176 134.95 25.24H124.006C124.07 26.184 124.334 27.04 124.798 27.808C125.262 28.576 125.854 29.184 126.574 29.632C127.31 30.064 128.11 30.28 128.974 30.28C129.838 30.28 130.654 30.056 131.422 29.608C132.19 29.16 132.726 28.584 133.03 27.88L134.086 28.168C133.846 28.76 133.462 29.288 132.934 29.752C132.422 30.216 131.814 30.584 131.11 30.856C130.422 31.112 129.694 31.24 128.926 31.24ZM123.958 24.304H133.822C133.758 23.328 133.502 22.464 133.054 21.712C132.606 20.96 132.014 20.368 131.278 19.936C130.558 19.504 129.758 19.288 128.878 19.288C127.998 19.288 127.198 19.504 126.478 19.936C125.758 20.368 125.174 20.96 124.726 21.712C124.278 22.464 124.022 23.328 123.958 24.304ZM136.75 24.784C136.75 23.616 136.998 22.544 137.494 21.568C137.99 20.592 138.67 19.808 139.534 19.216C140.398 18.608 141.382 18.304 142.486 18.304C143.574 18.304 144.534 18.592 145.366 19.168C146.214 19.744 146.878 20.432 147.358 21.232V13.48H148.558V29.416C148.558 29.608 148.598 29.752 148.678 29.848C148.774 29.944 148.902 30 149.062 30.016V31C148.806 31.032 148.614 31.04 148.486 31.024C148.198 30.976 147.958 30.84 147.766 30.616C147.574 30.392 147.478 30.152 147.478 29.896V28.504C146.966 29.336 146.278 30 145.414 30.496C144.55 30.992 143.662 31.24 142.75 31.24C141.886 31.24 141.086 31.064 140.35 30.712C139.614 30.344 138.974 29.856 138.43 29.248C137.902 28.64 137.486 27.952 137.182 27.184C136.894 26.416 136.75 25.616 136.75 24.784ZM147.358 26.8V22.696C147.134 22.088 146.774 21.536 146.278 21.04C145.782 20.528 145.222 20.128 144.598 19.84C143.974 19.536 143.358 19.384 142.75 19.384C142.03 19.384 141.374 19.536 140.782 19.84C140.206 20.144 139.702 20.552 139.27 21.064C138.854 21.576 138.534 22.16 138.31 22.816C138.086 23.456 137.974 24.12 137.974 24.808C137.974 25.512 138.102 26.192 138.358 26.848C138.614 27.488 138.966 28.064 139.414 28.576C139.878 29.072 140.406 29.464 140.998 29.752C141.606 30.024 142.262 30.16 142.966 30.16C143.398 30.16 143.854 30.072 144.334 29.896C144.83 29.72 145.294 29.48 145.726 29.176C146.174 28.856 146.542 28.496 146.83 28.096C147.134 27.68 147.31 27.248 147.358 26.8Z" fill="#466443"/>
</svg>
